<?xml version="1.0" encoding="UTF-8"?>
<svg version="1.1" xmlns="http://www.w3.org/2000/svg" width="1875" height="721">
<path d="M0 0 C618.75 0 1237.5 0 1875 0 C1875 237.93 1875 475.86 1875 721 C1256.25 721 637.5 721 0 721 C0 483.07 0 245.14 0 0 Z " fill="#A80533" transform="translate(0,0)"/>
<path d="M0 0 C57.42 0 114.84 0 174 0 C174 6.6 174 13.2 174 20 C174.16275323 23.82348629 174.35004829 27.57271214 174.6875 31.375 C174.77362549 32.35573486 174.85975098 33.33646973 174.94848633 34.34692383 C178.02010869 66.26941213 186.08348309 96.87624245 195.2109375 127.49609375 C195.91918184 129.87865613 196.6272832 132.26126103 197.33525085 134.64390564 C204.7629427 159.62390093 212.25541922 184.58454432 219.75500488 209.54302979 C222.58357011 218.95683311 225.41077939 228.37104353 228.23736191 237.78544235 C229.25544027 241.17573204 230.27408608 244.56585089 231.29275513 247.95596313 C234.35558489 258.1536288 237.40747771 268.35425343 240.42333984 278.56591797 C240.81661044 279.89602795 240.81661044 279.89602795 241.21782589 281.25300884 C242.42458292 285.3352561 243.62817696 289.41837774 244.82539368 293.50343323 C245.23853949 294.903935 245.65179581 296.30440419 246.06518555 297.70483398 C246.5940461 299.50717751 246.5940461 299.50717751 247.1335907 301.34593201 C247.74411589 303.89503612 247.74411589 303.89503612 249 305 C256.72776961 278.62543366 264.44828977 252.24874975 272.16094208 225.86975861 C272.71467676 223.97586687 273.26843302 222.08198144 273.82221222 220.18810272 C277.19112576 208.66654452 280.55686103 197.14406567 283.91769409 185.62014771 C284.8719932 182.34825582 285.82734577 179.07667475 286.78372192 175.8053894 C291.51923502 159.60493197 296.21087643 143.39312537 300.7491188 127.1361351 C301.16846253 125.63401404 301.58865931 124.13213078 302.00985336 122.6305275 C313.43479815 81.84737948 319.71024186 42.5620185 321 0 C377.43 0 433.86 0 492 0 C492 12.87 492 25.74 492 39 C483.585 41.475 483.585 41.475 475 44 C464.73855133 48.57303691 459.26491801 52.42362823 455 63 C451.70110774 73.50295968 451.85059388 84.55584401 452.2421875 95.4375 C452.26494625 96.09814453 452.287705 96.75878906 452.31115341 97.43945312 C452.96467609 115.94055265 454.4413928 134.3876633 455.87937927 152.84090805 C456.21518647 157.15994837 456.54677606 161.47930919 456.87857056 165.79865932 C457.64920948 175.82827868 458.42556112 185.85744503 459.20617676 195.88629246 C460.40924924 211.34311515 461.59956428 226.8008794 462.78222656 242.25927734 C464.25764204 261.54306462 465.74218983 280.82612922 467.23596382 300.10850334 C468.07665848 310.96281969 468.91400909 321.81737025 469.74273682 332.67260742 C470.45945135 342.05932573 471.18421407 351.44538385 471.91853011 360.83074218 C472.29886334 365.69471998 472.67567234 370.55890135 473.04280472 375.42389488 C475.17925384 426.23203802 475.17925384 426.23203802 499.45703125 469.0234375 C504.70024382 473.09880702 510.71838903 475.90612968 517 478 C517 490.87 517 503.74 517 517 C448.69 517 380.38 517 310 517 C310 504.13 310 491.26 310 478 C314.95 474.7 319.9 471.4 325 468 C340.86890126 455.304879 346.15778054 440.06627937 348.40625 420.45703125 C349.82733905 403.30527591 348.76289101 386.13031903 347.82250977 368.9855957 C347.69566949 366.61176577 347.5692261 364.2379146 347.44314575 361.86404419 C347.10215202 355.4653292 346.75556502 349.06692851 346.40785336 342.66857553 C346.08053886 336.63061343 345.75730724 330.59243411 345.43396913 324.55425801 C344.79320864 312.59123111 344.14823599 300.62843516 343.50073242 288.66577148 C342.8742681 277.09170042 342.25040935 265.5174931 341.62963867 253.94311523 C341.59137313 253.22965725 341.55310759 252.51619927 341.51368249 251.78112135 C341.35981344 248.91215605 341.20594672 246.04319061 341.05208692 243.17422481 C340.45775906 232.0935157 339.8614524 221.01291295 339.26478054 209.93232984 C339.0852211 206.59770917 338.90574601 203.263084 338.72647214 199.92844796 C338.31783835 192.32824526 337.90805435 184.72810657 337.49632645 177.12807083 C337.37215999 174.83284037 337.24839848 172.53758796 337.12508583 170.24231148 C336.51114151 158.82037141 335.88303015 147.4049285 335 136 C334.63370483 137.49829346 334.63370483 137.49829346 334.26000977 139.02685547 C321.82779482 189.6381571 306.49587898 239.40208009 290.63067627 289.02706909 C289.74074918 291.81100871 288.85139735 294.59513201 287.96199131 297.37923813 C285.76717954 304.24949107 283.5714428 311.1194481 281.37524414 317.98925781 C277.00681717 331.65415721 272.64088143 345.31984959 268.28045654 358.98730469 C267.46511889 361.54281641 266.64916606 364.09812875 265.83282471 366.65332031 C253.60500742 404.93099303 241.83638609 443.38472093 232.8125 482.5625 C232.63350159 483.33844513 232.45450317 484.11439026 232.27008057 484.91384888 C229.83474864 495.55329998 227.80971837 506.23729435 226 517 C219.75204325 517.02527124 213.50409959 517.04283344 207.25610352 517.05493164 C205.12881986 517.05997298 203.00153969 517.06680591 200.87426758 517.07543945 C197.82372174 517.08751379 194.77322155 517.09323014 191.72265625 517.09765625 C190.28672874 517.10539818 190.28672874 517.10539818 188.8217926 517.11329651 C187.94095505 517.11337204 187.06011749 517.11344757 186.15258789 517.11352539 C184.9834359 517.11685631 184.9834359 517.11685631 183.79066467 517.12025452 C182 517 182 517 181 516 C180.72614733 514.61202621 180.50612722 513.21337368 180.30859375 511.8125 C176.75407462 487.98538754 170.6278148 464.79106908 164.328125 441.5703125 C164.114016 440.77953245 163.899907 439.9887524 163.67930984 439.17400932 C159.42124622 423.45274525 155.05438075 407.76288732 150.64562988 392.08331299 C149.31291949 387.34321437 147.983876 382.60209123 146.65527344 377.86083984 C142.80679361 364.12881363 138.95534421 350.39762511 135.09667969 336.66845703 C120.32710557 284.11223502 105.9558097 231.45846439 91.86474609 178.71630859 C88.84098274 167.39857612 85.80608172 156.08383864 82.76953125 144.76953125 C82.40414529 143.40801217 82.40414529 143.40801217 82.03137779 142.01898766 C80.6878053 137.01259934 79.34401335 132.00626998 78 127 C75.88289596 153.44982494 74.5867838 179.95245057 73.17213392 206.44675779 C72.95933497 210.42842228 72.74578884 214.41004621 72.53187943 218.39165115 C72.49607071 219.0582281 72.46026199 219.72480504 72.42336816 220.41158129 C72.35057078 221.76668912 72.27777285 223.12179693 72.20497437 224.47690471 C71.52768023 237.08684831 70.85359589 249.69696193 70.18053706 262.3071322 C69.56649182 273.80972751 68.94832631 285.31209715 68.32825868 296.81436925 C67.68801561 308.6916015 67.05056147 320.56898047 66.41608775 332.44652236 C66.06122386 339.08877269 65.70522467 345.73095847 65.34641647 352.37299728 C65.00981465 358.60620851 64.67685366 364.83960397 64.346632 371.07315636 C64.22537805 373.35075036 64.10286756 375.6282779 63.97896385 377.90572929 C61.10525611 420.0639959 61.10525611 420.0639959 75 459 C75.680625 460.051875 76.36125 461.10375 77.0625 462.1875 C85.15761169 471.07927348 97.03329172 474.34443057 108 478 C108 490.87 108 503.74 108 517 C65.43 517 22.86 517 -21 517 C-21 504.13 -21 491.26 -21 478 C-17.04 476.35 -13.08 474.7 -9 473 C5.96811488 463.08605378 10.81291496 448.72420915 14.34375 431.828125 C16.97336633 418.07698689 18.59208569 404.27832653 19.90966797 390.35205078 C20.03574137 389.03960054 20.03574137 389.03960054 20.16436172 387.70063615 C22.15443348 366.97888054 23.87832501 346.23539167 25.5705781 325.48755407 C26.00004019 320.22901628 26.4327731 314.9707473 26.86495972 309.71243286 C27.58814757 300.90742853 28.30879134 292.10221891 29.02783203 283.296875 C29.85139386 273.2119784 30.67917023 263.12743431 31.50914967 253.043064 C32.31896944 243.20231639 33.12568613 233.36131659 33.93108749 223.52020645 C34.26894776 219.39260854 34.60784422 215.26509784 34.94766617 211.13766098 C38.72827519 166.2773942 38.72827519 166.2773942 40.75 121.3125 C40.78036346 120.04791458 40.78036346 120.04791458 40.81134033 118.75778198 C41.34366448 95.05040566 41.25549314 69.3779562 24.375 50.75 C17.38266581 44.13273354 9.20024488 41.30006122 0 39 C0 26.13 0 13.26 0 0 Z " fill="#FFFFFF" transform="translate(1277,102)"/>
<path d="M0 0 C28.0531961 -0.04650199 56.10638276 -0.08209301 84.15960979 -0.10362434 C97.18820707 -0.11389199 110.21677981 -0.12786494 123.24536133 -0.15087891 C134.61464656 -0.17095211 145.983914 -0.18374911 157.35321647 -0.18817699 C163.36080717 -0.19076104 169.36834702 -0.19673793 175.37592125 -0.21146011 C240.87848888 -0.36547616 308.6553669 1.9412765 358 51 C385.27153167 78.22824352 396.17134537 116.1207382 396.25 153.8125 C396.26677507 187.21512468 388.42687887 219.59515937 367 246 C366.51208984 246.60457031 366.02417969 247.20914063 365.52148438 247.83203125 C359.85447229 254.78798256 354.13689352 261.50727137 347 267 C346.24541504 267.59627197 346.24541504 267.59627197 345.47558594 268.20458984 C311.5504798 294.87949401 267.84591114 303.94679255 225.36914062 298.98657227 C214.25034992 297.49294805 203.02765035 294.61547104 195.125 286.1875 C191.21922206 280.32883309 190.49232506 274.9629806 191.52734375 268.0390625 C192.72995719 262.85092848 195.65635059 259.89576627 200 257 C203.84066852 256.00155931 207.60903359 255.81390283 211.5625 255.625 C224.38504102 254.72728814 235.75950122 251.90783275 244.8125 242.25 C261.70852493 221.08050741 261.22705189 188.33262936 261.1875 162.625 C261.18689575 161.89010345 261.1862915 161.15520691 261.18566895 160.39804077 C261.11091942 126.60624216 260.07551063 83.24296363 235.41015625 57.21875 C231.61380306 53.72389001 227.61519462 51.27356195 223 49 C222.08476563 48.54882812 221.16953125 48.09765625 220.2265625 47.6328125 C206.27141861 41.3099725 191.05682743 40.07930861 175.9375 39.4375 C174.49600586 39.37272461 174.49600586 39.37272461 173.02539062 39.30664062 C170.68369723 39.20178868 168.34192071 39.09962212 166 39 C166.05890546 89.33718207 166.13347249 139.67432005 166.22898628 190.01144669 C166.24025418 195.95684967 166.25139268 201.90225288 166.26245117 207.84765625 C166.2657567 209.62305883 166.2657567 209.62305883 166.269129 211.43432812 C166.3044825 230.58841454 166.32935763 249.74250091 166.35034702 268.89660783 C166.37212457 288.55665725 166.40519359 308.21666441 166.44870156 327.87667787 C166.47518455 340.00381347 166.49290462 352.13089641 166.49934604 364.25805949 C166.50461017 372.5788695 166.52086157 380.89961332 166.54566566 389.22038783 C166.55964548 394.01798575 166.56886463 398.81546525 166.56500816 403.61308479 C166.56157878 408.01299074 166.57207227 412.4126445 166.59323552 416.81249885 C166.59847073 418.39684724 166.59877304 419.98122204 166.59339563 421.56556995 C166.54648703 436.9654279 168.07538129 451.6155831 178.375 463.8125 C179.674375 464.8953125 179.674375 464.8953125 181 466 C181.515625 466.47824219 182.03125 466.95648437 182.5625 467.44921875 C192.16136817 475.66204345 204.94784864 477.14582287 217 479 C217 491.87 217 504.74 217 518 C145.39 518 73.78 518 0 518 C0 505.13 0 492.26 0 479 C5.28 477.35 10.56 475.7 16 474 C27.72202628 467.09702897 34.22840816 457.99579219 37.868433 444.86798191 C40.91982621 430.04890483 40.42844825 414.98151636 40.39217401 399.92501175 C40.38532417 395.71159008 40.39589379 391.49820433 40.40411377 387.28479004 C40.41739027 379.05268704 40.41460077 370.82066651 40.40587585 362.58856039 C40.39907607 355.89334905 40.39819245 349.19816067 40.4014473 342.50294685 C40.401907 341.5468194 40.40236669 340.59069194 40.40284032 339.60559093 C40.40379958 337.6627097 40.40477223 335.71982848 40.4057581 333.77694727 C40.41429405 315.59768526 40.40450587 297.41846879 40.388357 279.23921425 C40.3749533 263.66864936 40.37728583 248.09815158 40.39111328 232.52758789 C40.40719717 214.40786593 40.4134725 196.28818377 40.40427649 178.16845566 C40.40332093 176.23338291 40.40237781 174.29831015 40.4014473 172.36323738 C40.40098447 171.4113573 40.40052164 170.45947723 40.40004479 169.4787523 C40.39746348 162.79751064 40.40180725 156.11629441 40.40888596 149.43505669 C40.41733235 141.2844657 40.41495509 133.1339613 40.39904372 124.98338013 C40.39120337 120.83146009 40.38799637 116.67968399 40.39799118 112.52776527 C40.40702724 108.71625196 40.40186123 104.90501402 40.38605852 101.09352518 C40.38119759 99.08505501 40.39082672 97.07656523 40.40123022 95.06811613 C40.30413958 79.80177588 37.92766459 65.25242504 28.75 52.625 C22.52326199 46.68129554 15.21404425 43.2871023 7 41 C4.69 40.34 2.38 39.68 0 39 C0 26.13 0 13.26 0 0 Z " fill="#FFFFFF" transform="translate(840,103)"/>
<path d="M0 0 C116.16 0 232.32 0 352 0 C352 40.26 352 80.52 352 122 C336.49 122 320.98 122 305 122 C303.2675 118.24625 301.535 114.4925 299.75 110.625 C291.90323042 94.06427146 282.30625514 79.55415933 270 66 C269.34902344 65.25492187 268.69804687 64.50984375 268.02734375 63.7421875 C251.82955507 46.20318065 228.71954758 41.52439418 206 39 C194.45 39 182.9 39 171 39 C171 100.71 171 162.42 171 226 C211.08486964 225.53688039 211.08486964 225.53688039 246.37890625 207.80859375 C254.07839279 199.21856419 257.76894584 189.15527078 260 178 C276.83 178 293.66 178 311 178 C311 225.85 311 273.7 311 323 C294.5 323 278 323 261 323 C259.92847718 319.78543155 258.87653398 316.56208869 257.95703125 313.30078125 C255.49052971 304.59043902 252.49063035 297.33312376 247 290 C246.36449219 289.14792969 245.72898437 288.29585938 245.07421875 287.41796875 C227.67808994 267.13886567 194.78201455 266.98183455 171 265 C171 335.62 171 406.24 171 479 C221.0785801 479.70005115 221.0785801 479.70005115 264.71875 457.4453125 C265.4715625 456.63835937 266.224375 455.83140625 267 455 C267.7940625 454.15179687 268.588125 453.30359375 269.40625 452.4296875 C280.96922821 439.29326605 289.69024634 423.82906184 297 408 C297.51820313 406.8874585 297.51820313 406.8874585 298.046875 405.75244141 C301.94801932 397.33353169 305.59123612 388.97304425 308.30859375 380.08984375 C309 378 309 378 310 377 C327.16 377 344.32 377 362 377 C357.05 446.3 357.05 446.3 352 517 C236.17 517 120.34 517 1 517 C1 504.13 1 491.26 1 478 C6.28 477.01 11.56 476.02 17 475 C27.96759564 471.02424658 34.83354842 465.57583975 40 455 C45.58486285 442.94845384 45.29871691 428.01439216 45.26069641 415.00340271 C45.26372701 413.56897649 45.26762099 412.13455188 45.27228898 410.70013005 C45.28246025 406.80886415 45.28041538 402.91769149 45.27610838 399.02641833 C45.27362123 394.81027618 45.28267961 390.59415535 45.29014587 386.37802124 C45.30283864 378.13878229 45.30469349 369.899576 45.30234561 361.66032892 C45.30055673 354.95984413 45.30232425 348.25936919 45.30657005 341.55888557 C45.30716524 340.60233391 45.30776043 339.64578224 45.30837366 338.66024416 C45.3095855 336.71655567 45.31079963 334.77286718 45.31201603 332.8291787 C45.32286999 314.6385178 45.32073885 296.44787548 45.31463119 278.25721354 C45.30946003 261.63966805 45.32072654 245.02218113 45.33972941 228.40464722 C45.35912905 211.30810511 45.36736032 194.21159069 45.36360615 177.1150375 C45.36169784 167.52996933 45.36414586 157.94495104 45.37832069 148.35989189 C45.39026236 140.20303209 45.39160796 132.04625292 45.37953053 123.88939195 C45.37366229 119.73354821 45.37248524 115.57785178 45.38453293 111.42201805 C45.39546057 107.60805612 45.39220775 103.79436327 45.37827124 99.98041356 C45.37441087 97.96816914 45.38511459 95.95591244 45.39656812 93.94369692 C45.30843851 78.91733836 43.03226362 64.35076727 32.9296875 52.58984375 C23.37573532 43.42969247 13.04519496 41.60903899 0 39 C0 26.13 0 13.26 0 0 Z " fill="#FFFFFF" transform="translate(85,102)"/>
<path d="M0 0 C0.81581543 0.1129541 1.63163086 0.2259082 2.47216797 0.34228516 C40.12616091 5.85208589 74.81932402 22.95955149 104 47 C104.8727507 47.54626038 105.7455014 48.09252075 106.6446991 48.65533447 C109.35213003 51.35053998 109.58453157 52.88268884 109.62210083 56.63804626 C109.60412445 57.38107498 109.58614807 58.1241037 109.56762695 58.88964844 C109.56835709 59.68027176 109.56908722 60.47089508 109.56983948 61.28547668 C109.56636089 63.89414507 109.52748939 66.5010193 109.48828125 69.109375 C109.47895403 70.91968816 109.47183749 72.73001394 109.46684265 74.54034424 C109.44776559 79.30164528 109.39865886 84.06218185 109.34332275 88.82318115 C109.28314526 94.53742169 109.26021738 100.25191807 109.23105621 105.96638489 C109.18259405 114.64478803 109.08678486 123.32151433 109 132 C88.21 132 67.42 132 46 132 C42 122 42 122 40.78662109 118.96313477 C31.71160677 96.37618946 22.09481396 75.70208977 5 58 C4.08154297 57.04287109 4.08154297 57.04287109 3.14453125 56.06640625 C-6.80508447 46.54108118 -20.71839471 41.27306804 -34.3828125 40.91015625 C-45.53181476 41.42411735 -55.06647268 44.8081636 -63.5 52.1875 C-72.94533578 62.81350276 -76.20972607 73.81352961 -76 88 C-73.77812177 110.19514529 -61.26097705 128.55673821 -47 145 C-46.31679688 145.7940625 -45.63359375 146.588125 -44.9296875 147.40625 C-39.901708 153.12070641 -34.5727654 158.50510415 -29.13598633 163.82739258 C-26.20859106 166.71038895 -23.40959291 169.64136206 -20.73681641 172.76318359 C-17.24388 176.77511858 -13.56656165 180.54660265 -9.78125 184.28125 C-9.11967896 184.93903442 -8.45810791 185.59681885 -7.77648926 186.27453613 C-5.68677265 188.35217274 -3.59382685 190.42650627 -1.5 192.5 C1.263417 195.2365815 4.02333722 197.97662263 6.78125 200.71875 C7.71124817 201.63630066 7.71124817 201.63630066 8.66003418 202.5723877 C12.41158939 206.30320351 15.93755189 210.1675513 19.39587402 214.17102051 C21.44230246 216.50430087 23.60144229 218.69784266 25.8125 220.875 C26.66070313 221.71546875 27.50890625 222.5559375 28.3828125 223.421875 C29.24648438 224.27265625 30.11015625 225.1234375 31 226 C36.30720734 231.22799529 41.51415983 236.45724443 46.36425781 242.11474609 C49.10353918 245.27187009 52.00028619 248.27922302 54.875 251.3125 C59.73226297 256.47794705 64.37891121 261.73287492 68.8046875 267.27734375 C70.80037918 269.75242756 72.85103263 272.1699867 74.92749023 274.57739258 C108.85351515 314.01721883 127.65263305 357.39357642 125 410 C122.66948275 438.58577193 113.08098713 465.32005083 94 487 C93.31421875 487.81855469 92.6284375 488.63710938 91.921875 489.48046875 C71.28001684 513.52441094 42.11620866 528.60342121 11.4375 535.25 C10.39662231 535.47671387 10.39662231 535.47671387 9.3347168 535.70800781 C-4.3232746 538.45479714 -18.03820438 539.38511869 -31.9375 539.3125 C-32.6907959 539.31034485 -33.4440918 539.3081897 -34.22021484 539.30596924 C-72.70461607 539.13102176 -109.2737244 529.81859457 -145 516 C-145.95729004 515.6400293 -146.91458008 515.28005859 -147.90087891 514.90917969 C-150.72298628 513.83431744 -153.5182915 512.70767155 -156.3125 511.5625 C-157.17294922 511.23983154 -158.03339844 510.91716309 -158.91992188 510.5847168 C-161.27831777 509.57601404 -163.03874034 508.64954252 -165 507 C-165.55987453 505.17476749 -165.55987453 505.17476749 -165.69541931 503.04029846 C-165.75362288 502.23621614 -165.81182644 501.43213383 -165.87179375 500.60368538 C-165.91410181 499.7444692 -165.95640987 498.88525303 -166 498 C-166.05203142 497.14415251 -166.10406284 496.28830502 -166.15767097 495.40652275 C-166.31960764 492.5346422 -166.44916906 489.66260932 -166.57250977 486.78881836 C-166.62142365 485.70485779 -166.67033752 484.62089722 -166.72073364 483.50408936 C-166.88044046 479.94946028 -167.03595244 476.39466114 -167.19140625 472.83984375 C-167.3018187 470.36404786 -167.41249455 467.8882637 -167.52342224 465.41249084 C-167.81373449 458.91732049 -168.10048137 452.42199751 -168.38647461 445.92663574 C-168.73086337 438.12200302 -169.07970032 430.31756815 -169.42778778 422.51309967 C-169.95525798 410.67554738 -170.4770933 398.83775873 -171 387 C-151.2 387 -131.4 387 -111 387 C-109.17780019 391.85919948 -107.43708598 396.60757502 -105.87109375 401.53515625 C-95.20946646 434.62121838 -82.08989161 473.871664 -49 491 C-35.12860975 497.05600082 -23.01287608 497.36257079 -8.7734375 492.19140625 C4.02690388 486.45420145 11.80254479 474.69551388 16.95703125 462.15234375 C23.69426726 441.78923717 19.91375068 422.17281524 10.83984375 403.27075195 C-3.32195888 375.11452377 -25.98505473 350.66975632 -48.2890625 328.7421875 C-50.04733044 326.95180507 -51.68150368 325.09415767 -53.3125 323.1875 C-56.22250432 319.79804417 -59.32159559 316.635482 -62.5 313.5 C-66.24031312 309.81006147 -69.78239347 306.02496306 -73.19140625 302.02734375 C-75.36958492 299.58571366 -77.67248008 297.29951968 -80 295 C-82.93118191 292.10408042 -85.76403174 289.19757429 -88.4375 286.0625 C-91.3017425 282.71072686 -94.36358827 279.59470553 -97.5 276.5 C-101.25464559 272.79028612 -104.85882863 269.01191826 -108.28125 264.9921875 C-109.48347961 263.59869409 -110.71547441 262.2305811 -111.96875 260.8828125 C-146.34567513 223.89025177 -174.51795142 173.84781738 -173.08886719 122.17822266 C-171.66554716 87.29124115 -157.55841433 56.8189609 -132 33 C-129.5473936 30.92416418 -127.01781686 28.97647481 -124.4375 27.0625 C-123.74350098 26.54671387 -123.04950195 26.03092773 -122.33447266 25.49951172 C-86.68596798 -0.54850708 -42.86505213 -6.01213095 0 0 Z " fill="#FFFFFF" transform="translate(668,93)"/>
</svg>
